<svg id="Capa_1" enable-background="new 0 0 512 512" height="512" viewBox="0 0 512 512" width="512" xmlns="http://www.w3.org/2000/svg"><g><g><path d="m416.569 502.183h-323.167v-62.058c0-13.766 11.159-24.925 24.925-24.925h273.316c13.766 0 24.925 11.159 24.925 24.925v62.058z" fill="#ebe1dc"/></g><g><path d="m391.643 415.2h-30c13.766 0 24.925 11.16 24.925 24.925v62.058h30v-62.058c.001-13.766-11.159-24.925-24.925-24.925z" fill="#dcd2cd"/></g><g><path d="m172.068 157.355h41.242v165.087h-41.242z" fill="#b4aaaa"/></g><g><path d="m214.089 322.442h-42.799c-7.129 0-12.908 5.779-12.908 12.908v79.85h68.616v-79.85c-.001-7.129-5.78-12.908-12.909-12.908z" fill="#736e6e"/></g><g><path d="m301.842 157.355h41.242v165.087h-41.242z" fill="#b4aaaa"/></g><g><path d="m343.863 322.442h-42.799c-7.129 0-12.908 5.779-12.908 12.908v79.85h68.616v-79.85c-.001-7.129-5.78-12.908-12.909-12.908z" fill="#736e6e"/></g><g><path d="m214.089 322.442h-30c7.129 0 12.908 5.779 12.908 12.908v79.85h30v-79.85c0-7.129-5.779-12.908-12.908-12.908z" fill="#5a5555"/></g><g><path d="m343.863 322.442h-30c7.129 0 12.908 5.779 12.908 12.908v79.85h30v-79.85c0-7.129-5.779-12.908-12.908-12.908z" fill="#5a5555"/></g><g><path d="m428.092 157.355h-344.184c-2.92 0-5.286-2.367-5.286-5.286v-35.592c0-2.92 2.367-5.286 5.286-5.286h344.185c2.92 0 5.286 2.367 5.286 5.286v35.592c0 2.919-2.367 5.286-5.287 5.286z" fill="#9ec8fc"/></g><g><path d="m427.236 111.191h-34.858c3.392 0 6.142 2.75 6.142 6.142v33.88c0 3.392-2.75 6.142-6.142 6.142h34.858c3.392 0 6.142-2.75 6.142-6.142v-33.88c.001-3.392-2.749-6.142-6.142-6.142z" fill="#80b6fc"/></g><path d="m504.5 494.683h-80.432v-54.558c0-17.879-14.546-32.425-32.425-32.425h-27.372v-72.35c0-8.96-5.813-16.574-13.86-19.311l.121-23.638c.022-4.142-3.319-7.517-7.462-7.539-.013 0-.025 0-.039 0-4.124 0-7.478 3.333-7.499 7.461l-.116 22.618h-13.131l-13.13-.034.386-150.053h26.242l-.251 97.488c-.011 4.142 3.339 7.509 7.48 7.52h.02c4.133 0 7.489-3.345 7.5-7.48l.251-97.527h76.453c7.522 0 13.643-6.12 13.643-13.642v-33.88c0-7.522-6.12-13.642-13.643-13.642h-2.167v-63.853c0-20.689-16.832-37.522-37.521-37.522h-263.096c-20.689 0-37.521 16.832-37.521 37.522v63.853h-2.167c-7.522 0-13.643 6.12-13.643 13.642v33.88c0 7.522 6.12 13.642 13.643 13.642h10.546c4.143 0 7.5-3.358 7.5-7.5s-3.357-7.5-7.5-7.5h-9.188v-31.164h339.758v31.164h-295.712c-4.143 0-7.5 3.358-7.5 7.5s3.357 7.5 7.5 7.5h34.4v151.248c-7.956 2.787-13.688 10.352-13.688 19.247v72.35h-32.554c-17.88 0-32.426 14.546-32.426 32.425v54.558h-78.4c-4.143 0-7.5 3.358-7.5 7.5s3.357 7.5 7.5 7.5h497c4.143 0 7.5-3.358 7.5-7.5s-3.357-7.5-7.5-7.5zm-274.133-477.366h51.266v86.374h-51.266zm-15 86.374h-51.267v-86.374h51.267zm81.266-86.374h51.267v86.374h-51.267zm-194.702 22.521c0-12.419 10.104-22.522 22.521-22.522h24.648v86.374h-47.17v-63.852zm260.968 63.853v-86.374h24.648c12.418 0 22.521 10.103 22.521 22.522v63.853h-47.169zm-67.244 304.009v-72.35c0-2.982 2.426-5.408 5.408-5.408h21.269l20.526.053h.02c.291 0 .576-.021.858-.053h.128c2.982 0 5.408 2.426 5.408 5.408v72.35zm-1.503-91.527c-7.856 2.841-13.496 10.353-13.496 19.177v72.35h-46.158v-72.35c0-8.896-5.731-16.46-13.688-19.247v-151.248h73.732zm-88.342-151.318v150.087h-26.241v-150.087zm-39.929 170.495c0-2.982 2.426-5.408 5.408-5.408h.779 41.241.779c2.982 0 5.408 2.426 5.408 5.408v72.35h-53.616v-72.35zm-64.98 159.333v-23.193h134.838c4.143 0 7.5-3.358 7.5-7.5s-3.357-7.5-7.5-7.5h-134.838v-16.365c0-9.608 7.817-17.425 17.426-17.425h273.316c9.608 0 17.425 7.817 17.425 17.425v16.365h-45.545c-4.143 0-7.5 3.358-7.5 7.5s3.357 7.5 7.5 7.5h45.545v23.193z"/></g></svg>