<svg id="Capa_1" enable-background="new 0 0 509.822 509.822" height="512" viewBox="0 0 509.822 509.822" width="512" xmlns="http://www.w3.org/2000/svg"><g><g><path d="m161.029 335.213h190.799v31.638h-190.799z" fill="#62a4fb"/></g><g><path d="m60.921 366.851h-40.594c-7.084 0-12.827-5.743-12.827-12.827v-5.983c0-7.084 5.743-12.827 12.827-12.827h58.601" fill="#62a4fb"/></g><g><path d="m437.221 335.213h52.274c7.084 0 12.827 5.743 12.827 12.827v5.983c0 7.084-5.743 12.827-12.827 12.827h-36.405" fill="#62a4fb"/></g><g><path d="m455.663 223.123c-11.527 0-22.174-6.161-27.918-16.155l-16.137-28.074c-6.989-12.16-19.945-19.656-33.97-19.656h-42.909v175.973h141.841c6.238 0 11.295-5.057 11.295-11.295v-68.593c0-17.782-14.417-32.2-32.202-32.2z" fill="#bed9fd"/></g><g><path d="m455.663 223.123c-11.527 0-22.174-6.161-27.918-16.155l-16.137-28.074c-6.989-12.16-19.945-19.656-33.97-19.656h-30c14.025 0 26.981 7.496 33.97 19.656l16.137 28.074c5.744 9.993 16.392 16.155 27.918 16.155 17.785 0 32.202 14.417 32.202 32.202v68.593c0 6.238-5.057 11.295-11.295 11.295h30c6.238 0 11.295-5.057 11.295-11.295v-68.593c0-17.784-14.417-32.202-32.202-32.202z" fill="#9ec8fc"/></g><g><path d="m179.593 366.851h-116.753" fill="#8d9ca8"/></g><g><path d="m427.744 206.969-16.137-28.074c-6.99-12.16-19.945-19.656-33.97-19.656h-11.28v60.932h75.878c-5.986-2.748-11.098-7.299-14.491-13.202z" fill="#f7f7f7"/></g><g><ellipse cx="393.903" cy="374.816" fill="#736e6e" rx="55.993" ry="55.993" transform="matrix(.988 -.157 .157 .988 -54.097 66.688)"/></g><g><ellipse cx="393.903" cy="374.816" fill="#5a5555" rx="20.549" ry="20.549" transform="matrix(.974 -.228 .228 .974 -75.011 99.56)"/></g><g><path d="m319.025 79.013h-277.042c-8.672 0-15.702 7.03-15.702 15.702v240.498h308.447v-240.498c0-8.672-7.03-15.702-15.703-15.702z" fill="#f7f7f7"/></g><g><path d="m319.025 79.013h-30c8.672 0 15.702 7.03 15.702 15.702v240.498h30v-240.498c.001-8.672-7.03-15.702-15.702-15.702z" fill="#e8e8e8"/></g><g><path d="m487.865 286.87h-39.174c-3.566 0-6.456-2.891-6.456-6.457v-9.764c0-8.447 6.848-15.295 15.295-15.295h30.335z" fill="#f7f7f7"/></g><g><ellipse cx="121.446" cy="374.816" fill="#736e6e" rx="55.993" ry="55.993" transform="matrix(.163 -.987 .987 .163 -268.154 433.533)"/></g><g><ellipse cx="121.446" cy="374.816" fill="#5a5555" rx="20.549" ry="20.549" transform="matrix(.161 -.987 .987 .161 -268.046 434.247)"/></g><g><path d="m495.365 328.585v-41.715-31.516-.029c0-21.892-17.811-39.702-39.702-39.702-8.816 0-17.023-4.748-21.416-12.392l-16.137-28.073c-8.304-14.445-23.812-23.418-40.473-23.418h-35.41v-57.025c0-12.793-10.408-23.202-23.202-23.202h-277.042c-12.793 0-23.202 10.409-23.202 23.202v59.548c0 4.142 3.358 7.5 7.5 7.5s7.5-3.358 7.5-7.5v-59.548c0-4.522 3.679-8.202 8.202-8.202h26.445v166.94c0 4.142 3.358 7.5 7.5 7.5s7.5-3.358 7.5-7.5v-166.94h34.563v166.94c0 4.142 3.358 7.5 7.5 7.5s7.5-3.358 7.5-7.5v-166.94h34.563v166.94c0 4.142 3.358 7.5 7.5 7.5s7.5-3.358 7.5-7.5v-166.94h34.563v166.94c0 4.142 3.358 7.5 7.5 7.5s7.5-3.358 7.5-7.5v-166.94h34.563v166.94c0 4.142 3.358 7.5 7.5 7.5s7.5-3.358 7.5-7.5v-166.94h37.346c4.522 0 8.202 3.68 8.202 8.202l.134 232.998h-163.389c-11.265-10.181-26.184-16.391-42.527-16.391s-31.262 6.21-42.527 16.391h-45.138v-143.45c0-4.142-3.358-7.5-7.5-7.5s-7.5 3.358-7.5 7.5v143.528c-10.486.795-18.781 9.562-18.781 20.249v5.983c0 11.208 9.119 20.327 20.327 20.327h37.637c-.001.156-.012.309-.012.465 0 35.011 28.483 63.494 63.493 63.494 35.011 0 63.494-28.483 63.494-63.494 0-.156-.011-.309-.012-.465h37.466c4.142 0 7.5-3.358 7.5-7.5s-3.358-7.5-7.5-7.5h-39.368c-1.487-5.919-3.813-11.505-6.834-16.638h162.964c-3.021 5.132-5.346 10.719-6.833 16.638h-79.06c-4.142 0-7.5 3.358-7.5 7.5s3.358 7.5 7.5 7.5h77.159c-.001.156-.012.309-.012.465 0 35.011 28.483 63.494 63.493 63.494s63.493-28.483 63.493-63.494c0-.156-.011-.309-.012-.465h32.11c11.208 0 20.328-9.119 20.328-20.327v-5.983c.001-9.167-6.102-16.929-14.456-19.455zm-15-49.215h-30.63v-8.721c0-4.298 3.497-7.795 7.795-7.795h22.835zm-75.26-96.737 16.137 28.073c.386.671.798 1.323 1.219 1.966h-48.604v-45.933h3.78c11.307 0 21.833 6.091 27.468 15.894zm-62.744-15.894h16.496v53.433 33.281c0 4.142 3.358 7.5 7.5 7.5s7.5-3.358 7.5-7.5v-25.781h66.843c4.686 1.913 9.757 2.951 14.963 2.951 11.017 0 20.371 7.252 23.544 17.232h-21.677c-12.569 0-22.795 10.226-22.795 22.795v9.764c0 7.696 6.261 13.957 13.957 13.957h31.673v33.343h-43.144c-.252 0-.502.013-.748.038-11.27-10.203-26.206-16.428-42.57-16.428-16.344 0-31.262 6.21-42.527 16.391h-9.015zm-322.034 192.611c-2.937 0-5.327-2.39-5.327-5.327v-5.983c0-2.938 2.39-5.327 5.327-5.327h46.373c-3.021 5.132-5.346 10.719-6.833 16.638h-39.54zm101.119 63.959c-26.739 0-48.493-21.754-48.493-48.494 0-26.739 21.754-48.493 48.493-48.493s48.494 21.754 48.494 48.493c-.001 26.74-21.755 48.494-48.494 48.494zm272.457 0c-26.739 0-48.493-21.754-48.493-48.494 0-26.739 21.754-48.493 48.493-48.493s48.493 21.754 48.493 48.493c0 26.74-21.754 48.494-48.493 48.494zm100.919-69.286c0 2.938-2.39 5.327-5.328 5.327h-34.012c-1.487-5.919-3.812-11.505-6.833-16.638h40.845c2.938 0 5.328 2.39 5.328 5.327z"/><path d="m398.688 255.199h7.063c4.142 0 7.5-3.358 7.5-7.5s-3.358-7.5-7.5-7.5h-7.063c-4.142 0-7.5 3.358-7.5 7.5s3.358 7.5 7.5 7.5z"/><path d="m393.903 346.767c-15.466 0-28.049 12.583-28.049 28.049s12.582 28.049 28.049 28.049c15.466 0 28.049-12.583 28.049-28.049 0-15.467-12.583-28.049-28.049-28.049zm0 41.098c-7.195 0-13.049-5.854-13.049-13.049s5.853-13.049 13.049-13.049c7.195 0 13.049 5.854 13.049 13.049s-5.854 13.049-13.049 13.049z"/><path d="m121.446 346.767c-15.466 0-28.049 12.583-28.049 28.049s12.583 28.049 28.049 28.049 28.049-12.583 28.049-28.049c0-15.467-12.583-28.049-28.049-28.049zm0 41.098c-7.195 0-13.049-5.854-13.049-13.049s5.854-13.049 13.049-13.049 13.049 5.854 13.049 13.049-5.854 13.049-13.049 13.049z"/></g></g></svg>