<svg id="Capa_1" enable-background="new 0 0 509.822 509.822" height="512" viewBox="0 0 509.822 509.822" width="512" xmlns="http://www.w3.org/2000/svg"><g><g><path d="m303.375 220.876h-109.954v-120.3c0-3.549 2.877-6.426 6.426-6.426h97.103c3.549 0 6.425 2.877 6.425 6.426z" fill="#cf9875"/></g><g><path d="m193.421 220.876h-109.954v-70.996c0-6.772 5.49-12.261 12.261-12.261h97.693z" fill="#cf9875"/></g><g><path d="m296.95 94.15h-30c3.549 0 6.426 2.877 6.426 6.426v120.3h30v-120.3c-.001-3.549-2.877-6.426-6.426-6.426z" fill="#c7865b"/></g><g><path d="m163.421 137.618h30v83.258h-30z" fill="#c7865b"/></g><g><path d="m168.266 320.075h189.487v31.638h-189.487z" fill="#62a4fb"/></g><g><path d="m437.221 320.076h52.274c7.084 0 12.828 5.743 12.828 12.827v5.983c0 7.084-5.743 12.827-12.828 12.827h-36.405" fill="#62a4fb"/></g><g><path d="m60.921 351.713h-40.594c-7.084 0-12.827-5.743-12.827-12.827v-5.983c0-7.084 5.743-12.827 12.827-12.827h58.601" fill="#62a4fb"/></g><g><path d="m455.774 207.986c-11.441-.039-22.088-5.818-27.79-15.738l-16.376-28.49c-6.989-12.16-19.945-19.656-33.97-19.656h-24.865c-9.966 0-18.044 8.079-18.044 18.044v157.929h141.841c6.238 0 11.295-5.057 11.295-11.295v-68.593c0-17.747-14.357-32.141-32.091-32.201z" fill="#f7f7f7"/></g><g><path d="m179.593 351.713h-116.753" fill="#8d9ca8"/></g><g><path d="m427.744 191.832-16.137-28.074c-6.99-12.16-19.945-19.656-33.97-19.656h-11.28v60.932h75.878c-5.986-2.748-11.098-7.299-14.491-13.202z" fill="#bed9fd"/></g><g><ellipse cx="393.903" cy="359.678" fill="#736e6e" rx="55.993" ry="55.993" transform="matrix(.987 -.16 .16 .987 -52.528 67.74)"/></g><g><ellipse cx="393.903" cy="359.678" fill="#5a5555" rx="20.549" ry="20.549" transform="matrix(.707 -.707 .707 .707 -138.96 383.879)"/></g><g><path d="m334.728 220.876h-293.694c-8.148 0-14.753 6.605-14.753 14.753v84.447h308.447z" fill="#b4aaaa"/></g><g><path d="m304.728 220.876h30v99.2h-30z" fill="#9b9696"/></g><g><path d="m487.865 271.733h-39.173c-3.566 0-6.457-2.891-6.457-6.457v-9.764c0-8.447 6.848-15.295 15.295-15.295h30.335z" fill="#f7e365"/></g><g><ellipse cx="121.446" cy="359.678" fill="#736e6e" rx="55.993" ry="55.993" transform="matrix(.16 -.987 .987 .16 -253.042 421.942)"/></g><g><ellipse cx="121.446" cy="359.678" fill="#5a5555" rx="20.549" ry="20.549" transform="matrix(.16 -.987 .987 .16 -253.042 421.942)"/></g><g><path d="m61.285 284.914h-35.004v-37.344h35.004c6.701 0 12.133 5.432 12.133 12.132v13.079c0 6.701-5.432 12.133-12.133 12.133z" fill="#f7f7f7"/></g><g><path d="m122.975 137.618h32.549v40.464h-32.549z" fill="#c7865b"/></g><g><path d="m232.016 94.15h32.549v40.464h-32.549z" fill="#c7865b"/></g><g><path d="m495.365 313.448v-73.231-.029c0-21.892-17.811-39.702-39.702-39.702-8.816 0-17.023-4.748-21.417-12.392l-16.137-28.073c-8.303-14.445-23.811-23.419-40.473-23.419h-24.73c-14.086 0-25.545 11.459-25.545 25.544v51.229h-16.485v-112.8c0-7.678-6.247-13.925-13.926-13.925h-97.104c-7.678 0-13.925 6.247-13.925 13.925v29.542h-90.192c-10.896 0-19.762 8.865-19.762 19.762v12.096c0 4.142 3.358 7.5 7.5 7.5s7.5-3.358 7.5-7.5v-12.096c0-2.625 2.136-4.762 4.762-4.762h19.746v32.964c0 4.142 3.358 7.5 7.5 7.5h32.549c4.142 0 7.5-3.358 7.5-7.5v-32.964h22.897v68.258h-94.954v-21.4c0-4.142-3.358-7.5-7.5-7.5s-7.5 3.358-7.5 7.5v21.4h-34.933c-12.271 0-22.253 9.983-22.253 22.253v77.025c-10.486.796-18.781 9.563-18.781 20.25v5.983c0 11.208 9.119 20.327 20.327 20.327h37.637c-.001.156-.012.309-.012.465 0 35.011 28.483 63.494 63.493 63.494 35.011 0 63.494-28.483 63.494-63.494 0-.156-.011-.309-.012-.465h37.466c4.142 0 7.5-3.358 7.5-7.5s-3.358-7.5-7.5-7.5h-39.368c-1.487-5.919-3.812-11.505-6.833-16.638h162.964c-3.021 5.132-5.346 10.719-6.833 16.638h-79.06c-4.142 0-7.5 3.358-7.5 7.5s3.358 7.5 7.5 7.5h77.158c-.001.156-.012.309-.012.465 0 35.011 28.483 63.494 63.494 63.494s63.493-28.483 63.493-63.494c0-.156-.011-.309-.012-.465h32.109c11.209 0 20.328-9.119 20.328-20.327v-5.983c.001-9.167-6.102-16.929-14.456-19.455zm-347.341-142.866h-17.549v-25.464h17.549zm332.341 93.651h-30.631v-8.721c0-4.298 3.497-7.795 7.796-7.795h22.835zm-75.26-96.737 16.137 28.073c.386.671.798 1.323 1.219 1.966h-48.604v-45.933h3.779c11.308 0 21.834 6.09 27.469 15.894zm-52.199-15.894h5.951v53.433 33.281c0 4.142 3.357 7.5 7.5 7.5s7.5-3.358 7.5-7.5v-25.781h66.843c4.686 1.913 9.757 2.951 14.963 2.951 11.018 0 20.371 7.252 23.545 17.232h-21.678c-12.569 0-22.796 10.225-22.796 22.795v9.764c0 7.696 6.261 13.957 13.957 13.957h31.674v33.343h-43.145c-.252 0-.501.013-.747.038-11.27-10.203-26.206-16.428-42.57-16.428-16.344 0-31.262 6.21-42.527 16.391h-9.015v-150.432c0-5.814 4.731-10.544 10.545-10.544zm-113.39-49.952h17.549v25.464h-17.549zm-38.595 0h23.595v32.964c0 4.142 3.358 7.5 7.5 7.5h32.549c4.143 0 7.5-3.358 7.5-7.5v-32.964h23.81v111.725h-94.955v-111.725zm-159.887 126.726h160.044v50.04c0 4.142 3.358 7.5 7.5 7.5s7.5-3.358 7.5-7.5v-50.04h111.284v84.2h-163.389c-11.265-10.181-26.184-16.391-42.527-16.391s-31.262 6.21-42.527 16.391h-45.138v-20.161h27.504c10.825 0 19.632-8.807 19.632-19.633v-13.079c0-10.825-8.807-19.632-19.632-19.632h-27.504v-4.441c0-4.001 3.254-7.254 7.253-7.254zm-7.253 26.694h27.504c2.554 0 4.632 2.078 4.632 4.632v13.079c0 2.555-2.078 4.633-4.632 4.633h-27.504zm-13.454 89.143c-2.938 0-5.327-2.39-5.327-5.327v-5.983c0-2.938 2.39-5.327 5.327-5.327h46.372c-3.021 5.132-5.346 10.719-6.833 16.638h-39.539zm101.119 63.959c-26.739 0-48.493-21.754-48.493-48.494 0-26.739 21.754-48.493 48.493-48.493s48.494 21.754 48.494 48.493c-.001 26.739-21.755 48.494-48.494 48.494zm272.457 0c-26.739 0-48.494-21.754-48.494-48.494 0-26.739 21.755-48.493 48.494-48.493s48.493 21.754 48.493 48.493-21.754 48.494-48.493 48.494zm100.919-69.286c0 2.938-2.391 5.327-5.328 5.327h-34.011c-1.487-5.919-3.812-11.505-6.833-16.638h40.845c2.938 0 5.328 2.39 5.328 5.327v5.984z"/><path d="m395.688 240.061h7.063c4.143 0 7.5-3.358 7.5-7.5s-3.357-7.5-7.5-7.5h-7.063c-4.143 0-7.5 3.358-7.5 7.5 0 4.143 3.357 7.5 7.5 7.5z"/><path d="m393.903 331.629c-15.467 0-28.05 12.583-28.05 28.049s12.583 28.049 28.05 28.049c15.466 0 28.049-12.583 28.049-28.049s-12.583-28.049-28.049-28.049zm0 41.099c-7.195 0-13.05-5.854-13.05-13.049s5.855-13.049 13.05-13.049 13.049 5.854 13.049 13.049-5.853 13.049-13.049 13.049z"/><path d="m121.446 331.629c-15.466 0-28.049 12.583-28.049 28.049s12.583 28.049 28.049 28.049 28.049-12.583 28.049-28.049-12.583-28.049-28.049-28.049zm0 41.099c-7.195 0-13.049-5.854-13.049-13.049s5.854-13.049 13.049-13.049 13.049 5.854 13.049 13.049-5.854 13.049-13.049 13.049z"/></g></g></svg>