<svg id="Capa_1" enable-background="new 0 0 511.42 511.42" height="512" viewBox="0 0 511.42 511.42" width="512" xmlns="http://www.w3.org/2000/svg"><g><g><path d="m7.5 305.143h355.013v-171.184h-332.055c-12.679 0-22.958 10.279-22.958 22.958z" fill="#f7e365"/></g><g><path d="m332.513 133.959h30v171.184h-30z" fill="#f5de46"/></g><g><path d="m141.744 133.959h80.149v171.184h-80.149z" fill="#f3d332"/></g><g><path d="m63.153 133.959h38.508v171.184h-38.508z" fill="#f3d332"/></g><g><path d="m450.871 156.428h-88.358v-35.034c0-5.47 4.434-9.904 9.904-9.904h49.07c19.949 0 36.12 16.172 36.12 36.12v2.082c.001 3.72-3.015 6.736-6.736 6.736z" fill="#9ec8fc"/></g><g><path d="m422.792 111.489h-28.916c19.228 0 34.815 15.587 34.815 34.815v3.63c0 3.586-2.907 6.493-6.493 6.493h28.916c3.586 0 6.493-2.907 6.493-6.493v-3.63c.001-19.227-15.587-34.815-34.815-34.815z" fill="#80b6fc"/></g><g><path d="m503.92 305.143h-141.407v-148.715h59.435c2.888 0 5.649 1.183 7.641 3.274l67.647 52.599c4.217 3.279 6.684 8.322 6.684 13.665z" fill="#f7f7f7"/></g><g><path d="m497.236 212.301-24.269-18.87v111.712h30.954v-79.177c-.001-5.343-2.468-10.386-6.685-13.665z" fill="#f7e365"/></g><g><path d="m497.236 212.301-67.648-52.599c-1.992-2.091-4.753-3.274-7.641-3.274h-18.37v69.448c0 7.419 6.014 13.433 13.433 13.433h86.91v-13.344c0-5.342-2.467-10.385-6.684-13.664z" fill="#bed9fd"/></g><g><path d="m497.236 212.301-67.648-52.599c-1.992-2.091-4.753-3.274-7.641-3.274h-18.37v6.376l63.659 49.498c4.218 3.279 6.684 8.322 6.684 13.664v13.344h30v-13.344c0-5.343-2.466-10.385-6.684-13.665z" fill="#9ec8fc"/></g><g><circle cx="96.387" cy="354.947" fill="#bebebe" r="44.984"/></g><g><ellipse cx="96.387" cy="354.947" fill="#5a5a5a" rx="15.783" ry="15.782" transform="matrix(.16 -.987 .987 .16 -269.416 393.233)"/></g><g><circle cx="228.726" cy="354.947" fill="#bebebe" r="44.984"/></g><g><ellipse cx="228.726" cy="354.947" fill="#5a5a5a" rx="15.783" ry="15.782" transform="matrix(.16 -.987 .987 .16 -158.275 523.863)"/></g><g><circle cx="425.413" cy="354.947" fill="#bebebe" r="44.984"/></g><g><ellipse cx="425.413" cy="354.947" fill="#5a5a5a" rx="15.783" ry="15.783" transform="matrix(.707 -.707 .707 .707 -126.385 404.774)"/></g><g><path d="m497.676 340.627h-483.932c-3.449 0-6.245-2.796-6.245-6.245v-29.24h496.421v29.24c0 3.449-2.795 6.245-6.244 6.245z" fill="#9ec8fc"/></g><g><path d="m362.513 305.143h-36.322v-96.718c0-5.201 4.216-9.417 9.417-9.417h26.905z" fill="#9b9696"/></g><g><path d="m501.84 206.38-54.598-42.452h3.872c7.716 0 13.993-6.277 13.993-13.993v-3.63c0-23.333-18.982-42.315-42.315-42.315-4.143 0-7.5 3.358-7.5 7.5s3.357 7.5 7.5 7.5c15.061 0 27.315 12.254 27.315 27.315v2.623h-28.16-51.935v-27.535c0-1.326 1.078-2.404 2.404-2.404h21.459c4.143 0 7.5-3.358 7.5-7.5s-3.357-7.5-7.5-7.5h-21.459c-9.597 0-17.404 7.808-17.404 17.404v5.065h-324.554c-16.795.001-30.458 13.665-30.458 30.459v75.109c0 4.142 3.357 7.5 7.5 7.5 4.142 0 7.5-3.358 7.5-7.5v-75.109c0-8.523 6.934-15.458 15.458-15.458h24.83v156.184h-40.288v-35.617c0-4.142-3.358-7.5-7.5-7.5-4.143 0-7.5 3.358-7.5 7.5v39.869c0 .558.065 1.1.181 1.624-.116.524-.181 1.066-.181 1.624v29.24c0 7.579 6.166 13.745 13.744 13.745h30.605c-.293 2.254-.446 4.531-.446 6.819 0 28.94 23.544 52.484 52.483 52.484 28.94 0 52.484-23.544 52.484-52.484 0-2.286-.148-4.564-.441-6.819h28.259c-.293 2.254-.448 4.531-.448 6.819 0 28.94 23.544 52.484 52.484 52.484s52.484-23.544 52.484-52.484c0-2.286-.154-4.564-.447-6.819h.981c4.143 0 7.5-3.358 7.5-7.5s-3.357-7.5-7.5-7.5h-266.742v-20.484h481.42v20.484h-184.676c-4.143 0-7.5 3.358-7.5 7.5s3.357 7.5 7.5 7.5h61.632c-.293 2.254-.447 4.531-.447 6.819 0 28.94 23.544 52.484 52.483 52.484 28.94 0 52.484-23.544 52.484-52.484 0-2.286-.154-4.564-.447-6.819h20.225c7.578 0 13.744-6.166 13.744-13.745v-29.24-79.177c.002-7.713-3.489-14.851-9.578-19.586zm-367.969 148.567c0 20.668-16.815 37.484-37.484 37.484-20.668 0-37.483-16.816-37.483-37.484 0-2.301.228-4.58.639-6.819h14.595c-.675 2.194-1.033 4.491-1.033 6.819 0 12.838 10.444 23.283 23.282 23.283 12.839 0 23.283-10.445 23.283-23.283 0-2.345-.346-4.637-1.011-6.819h14.582c.411 2.239.63 4.521.63 6.819zm-31.628-5.857c1.565 1.565 2.427 3.645 2.427 5.857 0 4.567-3.716 8.283-8.283 8.283-4.566 0-8.282-3.716-8.282-8.283 0-2.319.935-4.47 2.631-6.055.257-.24.486-.499.702-.765h10.003c.238.337.501.661.802.963zm163.967 5.857c0 20.668-16.815 37.484-37.484 37.484s-37.484-16.816-37.484-37.484c0-2.301.23-4.579.642-6.819h14.594c-.67 2.19-1.034 4.482-1.034 6.819 0 12.838 10.444 23.283 23.282 23.283 12.839 0 23.283-10.445 23.283-23.283 0-2.345-.346-4.637-1.011-6.819h14.588c.41 2.239.624 4.522.624 6.819zm-31.628-5.857c1.565 1.565 2.427 3.645 2.427 5.857 0 4.567-3.716 8.283-8.283 8.283-4.566 0-8.282-3.716-8.282-8.283 0-2.076.771-4.061 2.171-5.589.353-.385.657-.798.915-1.23h10.249c.239.336.502.66.803.962zm196.688 0c1.565 1.565 2.427 3.645 2.427 5.857 0 4.567-3.716 8.283-8.283 8.283-4.566 0-8.282-3.716-8.282-8.283 0-2.397 1.039-4.676 2.85-6.253.207-.18.399-.37.582-.566h9.904c.237.336.5.66.802.962zm31.627 5.857c0 20.668-16.815 37.484-37.484 37.484-20.668 0-37.483-16.816-37.483-37.484 0-2.3.228-4.58.639-6.819h14.591c-.671 2.188-1.029 4.483-1.029 6.819 0 12.838 10.444 23.283 23.282 23.283 12.839 0 23.283-10.445 23.283-23.283 0-2.345-.346-4.637-1.011-6.819h14.588c.411 2.239.624 4.522.624 6.819zm-38.738-190.071c.257.269.532.519.826.747l67.647 52.598c2.407 1.872 3.788 4.695 3.788 7.745v5.843h-79.453c-3.248 0-5.89-2.642-5.89-5.889v-61.992h10.87c.832 0 1.638.345 2.212.948zm-28.082-.948v61.992c0 11.518 9.371 20.889 20.89 20.889h48.5v50.834h-95.454v-98.634-35.081zm-41.064 133.715h-21.321v-89.218c0-1.057.86-1.917 1.917-1.917h19.404zm0-106.134h-19.404c-9.328 0-16.917 7.589-16.917 16.917v89.218h-89.248v-156.185h30.286v110.617c0 4.142 3.357 7.5 7.5 7.5s7.5-3.358 7.5-7.5v-110.617h80.283zm-165.664-50.05h25.095v156.184h-25.095zm-15 156.184h-25.094v-156.184h25.094zm-104.061-156.184h23.872v72.872c0 4.142 3.357 7.5 7.5 7.5s7.5-3.358 7.5-7.5v-72.872h25.095v156.184h-25.188v-41.183c0-4.142-3.357-7.5-7.5-7.5s-7.5 3.358-7.5 7.5v41.183h-23.779zm410.179 156.184v-50.834h15.953v50.834z"/><path d="m403.577 274.492h13.409c4.143 0 7.5-3.358 7.5-7.5s-3.357-7.5-7.5-7.5h-13.409c-4.143 0-7.5 3.358-7.5 7.5s3.358 7.5 7.5 7.5z"/></g></g></svg>