<svg id="Capa_1" enable-background="new 0 0 511.526 511.526" height="512" viewBox="0 0 511.526 511.526" width="512" xmlns="http://www.w3.org/2000/svg"><g><g><path d="m32.901 272.991h111.98v83.125h-111.98z" fill="#67b59f"/></g><g><path d="m144.881 272.991h116.283v83.125h-116.283z" fill="#62a4fb" transform="matrix(-1 0 0 -1 406.046 629.107)"/></g><g><path d="m144.881 273.211h-111.98v-76.683c0-3.558 2.884-6.442 6.442-6.442h105.538z" fill="#9ec8fc"/></g><g><path d="m261.165 273.211v-75.752c0-4.072-3.301-7.372-7.372-7.372h-108.912v83.125h116.284" fill="#f7e365"/></g><g><path d="m484.283 356.557h-191.355v-184.724c0-7.26 5.885-13.144 13.144-13.144h139.803c5.317 0 10.349 2.404 13.689 6.541l20.811 25.77c2.528 3.13 3.906 7.032 3.906 11.055v154.502z" fill="#f7f7f7"/></g><g><path d="m480.376 190.999-20.811-25.77c-3.341-4.137-8.372-6.541-13.689-6.541h-30c5.317 0 10.349 2.404 13.689 6.541l20.811 25.77c2.528 3.13 3.906 7.032 3.906 11.055v154.504h30v-154.505c.001-4.022-1.378-7.924-3.906-11.054z" fill="#e8e8e8"/></g><g><path d="m422.838 125.813h-99.215c-6.906 0-12.504 5.598-12.504 12.504v20.371h124.224v-20.371c-.001-6.906-5.599-12.504-12.505-12.504z" fill="#c8beb9"/></g><g><path d="m422.838 125.813h-99.215-.001 69.216c6.906 0 12.504 5.598 12.504 12.504v20.371h-94.224 124.224v-20.371c0-6.906-5.598-12.504-12.504-12.504z" fill="#b4aaaa"/></g><g><path d="m330.699 313.997v8.743c0 18.663-15.154 33.779-33.817 33.733l-276.382-.69c-7.174-.018-13 5.793-13 12.967v29.897c0 39.119 31.712 70.832 70.832 70.832h266.342c88.008 0 159.353-49.819 159.353-137.827v-40.11c0-6.229-5.049-11.278-11.278-11.278h-128.317c-18.63 0-33.733 15.103-33.733 33.733z" fill="#c7865b"/></g><g><path d="m266.882 356.473c.721.001 1.435-.027 2.144-.07l-248.526-.62c-.466-.001-.925.024-1.379.071z" fill="#c27e4e"/></g><g><path d="m492.748 280.264h-30c6.229 0 11.278 5.049 11.278 11.278v40.11c0 88.008-71.345 137.827-159.353 137.827h30c88.008 0 159.353-49.819 159.353-137.827v-40.11c0-6.229-5.049-11.278-11.278-11.278z" fill="#c27e4e"/></g><g><path d="m328.284 194.688h109.058v46.469h-109.058z" fill="#9ec8fc"/></g><g><ellipse cx="420.591" cy="350.48" fill="#995e34" rx="26.198" ry="26.198" transform="matrix(.707 -.707 .707 .707 -124.638 400.056)"/></g><g><path d="m492.749 272.764h-.966v-70.71c0-5.718-1.979-11.318-5.571-15.768l-20.811-25.77c-4.788-5.928-11.904-9.328-19.524-9.328h-3.033v-12.871c0-11.03-8.974-20.004-20.004-20.004h-68.82v-27.883h10.298c4.143 0 7.5-3.358 7.5-7.5s-3.357-7.5-7.5-7.5h-10.298v-33.383c0-4.142-3.357-7.5-7.5-7.5s-7.5 3.358-7.5 7.5v4.135h-12.232c-4.143 0-7.5 3.358-7.5 7.5s3.357 7.5 7.5 7.5h12.232v14.248h-12.232c-4.143 0-7.5 3.358-7.5 7.5s3.357 7.5 7.5 7.5h12.232v27.883h-15.396c-11.03 0-20.004 8.974-20.004 20.004v13.031c-10.229 1.219-18.191 9.933-18.191 20.484v177.112l-16.764-.042v-151.443c0-8.201-6.672-14.872-14.872-14.872h-214.45c-7.688 0-13.942 6.254-13.942 13.942v1.59c0 4.142 3.358 7.5 7.5 7.5s7.5-3.358 7.5-7.5v-.532h22.133v67.905h-22.133v-37.373c0-4.142-3.358-7.5-7.5-7.5s-7.5 3.358-7.5 7.5v120.176l-4.882-.012c-.018 0-.035 0-.053 0-5.457 0-10.588 2.122-14.452 5.976-3.879 3.868-6.014 9.014-6.014 14.491v29.897c0 43.192 35.139 78.332 78.332 78.332h75.728c4.142 0 7.5-3.358 7.5-7.5s-3.358-7.5-7.5-7.5h-75.728c-34.753 0-63.048-28.141-63.319-62.832h256.87c4.143 0 7.5-3.358 7.5-7.5s-3.357-7.5-7.5-7.5h-256.883v-15.397c0-1.463.57-2.838 1.607-3.871 1.032-1.03 2.402-1.596 3.86-1.596h.014s276.452.69 276.488.69c10.993 0 21.331-4.274 29.117-12.04 7.812-7.792 12.113-18.159 12.113-29.192v-8.743c0-14.465 11.768-26.233 26.232-26.233h128.316c2.083 0 3.777 1.694 3.777 3.777v40.11c0 39.504-15.183 72.735-43.906 96.098-27.137 22.073-65.473 34.229-107.946 34.229h-160.612c-4.142 0-7.5 3.358-7.5 7.5s3.358 7.5 7.5 7.5h160.614c45.911 0 87.608-13.351 117.412-37.592 32.344-26.309 49.44-63.563 49.44-107.735v-40.11c0-10.354-8.424-18.778-18.777-18.778zm-169.126-139.451h99.216c2.759 0 5.004 2.245 5.004 5.004v12.871h-109.224v-12.871c0-2.759 2.245-5.004 5.004-5.004zm-131.958 132.178v-67.905h22.715v67.905zm-15 0h-24.284v-67.905h24.284zm-76.417 15.22v67.771l-22.715-.057v-67.714zm15 0h22.133v67.864l-22.133-.056zm37.133-.22h24.284v68.181l-24.284-.061zm39.284 0h22.715v68.275l-22.715-.057zm37.715 0h24.284v68.374l-24.284-.06zm24.285-15h-24.285v-67.905h24.284v67.905zm-116.284 0h-22.133v-67.905h22.133zm-59.847-67.904h22.715v67.905h-22.715zm-37.133 83.124h22.133v67.677l-22.133-.055zm282.799 33.286v8.743c0 7.02-2.737 13.615-7.706 18.572-4.127 4.117-9.382 6.685-15.066 7.429v-176.909c0-3.112 2.532-5.644 5.645-5.644h139.803c3.065 0 5.929 1.368 7.855 3.752l20.811 25.77c1.445 1.79 2.241 4.043 2.241 6.343v70.71h-112.351c-22.735.001-41.232 18.499-41.232 41.234z"/><path d="m437.342 187.188h-109.058c-4.143 0-7.5 3.358-7.5 7.5v46.469c0 4.142 3.357 7.5 7.5 7.5h109.059c4.143 0 7.5-3.358 7.5-7.5v-46.469c-.001-4.142-3.358-7.5-7.501-7.5zm-7.5 46.469h-94.059v-31.469h94.059z"/><path d="m454.29 350.48c0-18.581-15.117-33.698-33.698-33.698s-33.698 15.117-33.698 33.698 15.117 33.698 33.698 33.698c18.58 0 33.698-15.117 33.698-33.698zm-52.397 0c0-10.31 8.388-18.698 18.698-18.698 10.311 0 18.698 8.388 18.698 18.698s-8.388 18.698-18.698 18.698-18.698-8.388-18.698-18.698z"/></g></g></svg>