<svg id="Capa_1" enable-background="new 0 0 510.494 510.494" height="512" viewBox="0 0 510.494 510.494" width="512" xmlns="http://www.w3.org/2000/svg"><g><g><path d="m276.194 99.337v-86.598c0-2.894-2.346-5.24-5.24-5.24h-26.585c-2.894 0-5.24 2.346-5.24 5.24v87.517" fill="#ebe1dc"/></g><g><path d="m239.13 100.257v3.006h37.064v-3.926" fill="#ebe1dc"/></g><g><path d="m304.332 144.033h-98.17v-28.983c0-6.51 5.277-11.788 11.788-11.788h74.595c6.51 0 11.788 5.277 11.788 11.788v28.983z" fill="#c8beb9"/></g><g><path d="m292.544 103.263h-30c6.51 0 11.788 5.277 11.788 11.788v28.982h30v-28.983c0-6.51-5.277-11.787-11.788-11.787z" fill="#b4aaaa"/></g><g><path d="m342.891 502.994h-175.287c-13.53 0-24.498-10.968-24.498-24.498v-309.965c0-13.53 10.968-24.498 24.498-24.498h175.287c13.53 0 24.498 10.968 24.498 24.498v309.965c0 13.53-10.968 24.498-24.498 24.498z" fill="#9b9696"/></g><g><path d="m342.89 144.033h-30c13.53 0 24.499 10.968 24.499 24.499v309.965c0 13.53-10.969 24.498-24.499 24.498h30c13.53 0 24.499-10.968 24.499-24.498v-309.966c0-13.53-10.969-24.498-24.499-24.498z" fill="#736e6e"/></g><g><path d="m183.674 450.874v-254.721c0-6.38 5.172-11.551 11.551-11.551h120.044c6.38 0 11.551 5.172 11.551 11.551v254.722c0 6.38-5.172 11.551-11.551 11.551h-120.044c-6.379 0-11.551-5.172-11.551-11.552z" fill="#c8beb9"/></g><g><path d="m315.269 184.601h-30c6.38 0 11.552 5.172 11.552 11.552v254.721c0 6.38-5.172 11.552-11.552 11.552h30c6.38 0 11.552-5.172 11.552-11.552v-254.721c-.001-6.38-5.173-11.552-11.552-11.552z" fill="#b4aaaa"/></g><g><circle cx="255.247" cy="260.101" fill="#f3d332" r="35.572"/></g><g><circle cx="255.247" cy="385.656" fill="#92e0c4" r="35.572"/></g><g><path d="m255.247 224.529c-5.361 0-10.441 1.193-15 3.317 12.148 5.659 20.572 17.97 20.572 32.255s-8.424 26.596-20.572 32.255c4.559 2.124 9.639 3.317 15 3.317 19.646 0 35.572-15.926 35.572-35.572 0-19.645-15.926-35.572-35.572-35.572z" fill="#ecc52e"/></g><g><path d="m255.247 350.085c-5.361 0-10.441 1.193-15 3.317 12.148 5.659 20.572 17.97 20.572 32.255s-8.424 26.596-20.572 32.255c4.559 2.124 9.639 3.317 15 3.317 19.646 0 35.572-15.926 35.572-35.572s-15.926-35.572-35.572-35.572z" fill="#77d1b3"/></g><g><path d="m255.247 217.029c-23.75 0-43.072 19.322-43.072 43.072s19.322 43.072 43.072 43.072 43.072-19.322 43.072-43.072-19.322-43.072-43.072-43.072zm0 71.144c-15.48 0-28.072-12.593-28.072-28.072s12.593-28.072 28.072-28.072 28.072 12.593 28.072 28.072-12.592 28.072-28.072 28.072z"/><path d="m255.247 342.585c-23.75 0-43.072 19.322-43.072 43.072s19.322 43.072 43.072 43.072 43.072-19.322 43.072-43.072-19.322-43.072-43.072-43.072zm0 71.143c-15.48 0-28.072-12.593-28.072-28.072s12.593-28.072 28.072-28.072 28.072 12.593 28.072 28.072-12.592 28.072-28.072 28.072z"/><path d="m342.891 136.533h-31.059v-21.483c0-10.635-8.652-19.288-19.287-19.288h-8.852v-83.023c0-7.024-5.714-12.739-12.739-12.739h-26.585c-7.024 0-12.739 5.715-12.739 12.739v83.023h-13.681c-10.635 0-19.287 8.652-19.287 19.288v21.482h-31.058c-17.644 0-31.998 14.355-31.998 31.999v124.482c0 4.142 3.357 7.5 7.5 7.5s7.5-3.358 7.5-7.5v-124.482c0-9.373 7.625-16.999 16.998-16.999h175.287c9.373 0 16.998 7.626 16.998 16.999v309.965c0 9.373-7.625 16.998-16.998 16.998h-175.287c-9.373 0-16.998-7.625-16.998-16.998v-155.482c0-4.142-3.357-7.5-7.5-7.5s-7.5 3.358-7.5 7.5v155.482c0 17.644 14.355 31.998 31.998 31.998h175.287c17.644 0 31.998-14.354 31.998-31.998v-309.965c0-17.644-14.355-31.998-31.998-31.998zm-96.261-121.533h22.063v80.763h-22.063zm-32.968 100.05c0-2.364 1.923-4.288 4.287-4.288h74.596c2.364 0 4.287 1.923 4.287 4.288v21.482h-83.17z"/><path d="m326.82 297.017c4.142 0 7.5-3.358 7.5-7.5v-93.365c0-10.505-8.547-19.051-19.052-19.051h-120.042c-10.505 0-19.052 8.546-19.052 19.051v254.722c0 10.505 8.547 19.052 19.052 19.052h120.043c10.505 0 19.052-8.546 19.052-19.052v-131.357c0-4.142-3.358-7.5-7.5-7.5-4.143 0-7.5 3.358-7.5 7.5v131.357c0 2.234-1.817 4.052-4.052 4.052h-120.043c-2.234 0-4.052-1.817-4.052-4.052v-254.722c0-2.234 1.817-4.051 4.052-4.051h120.043c2.234 0 4.052 1.817 4.052 4.051v93.365c-.001 4.142 3.357 7.5 7.499 7.5z"/></g></g></svg>