<svg id="Capa_1" enable-background="new 0 0 512 512" height="512" viewBox="0 0 512 512" width="512" xmlns="http://www.w3.org/2000/svg"><g><g><path d="m303.84 51.223v35.759h-62.583v-34.912" fill="#80b6fc"/></g><g><path d="m316.056 14.999h-87.015c-1.914 0-3.466 1.552-3.466 3.466v25.21c0 1.914 1.552 3.466 3.466 3.466h87.015c1.914 0 3.466-1.552 3.466-3.466v-25.21c0-1.914-1.552-3.466-3.466-3.466z" fill="#9ec8fc"/></g><g><path d="m387.207 497.001h-229.317c-18.772 0-33.991-15.218-33.991-33.99v-342.512c0-18.773 15.218-33.991 33.991-33.991h229.317c18.772 0 33.991 15.218 33.991 33.991v342.511c-.001 18.773-15.219 33.991-33.991 33.991z" fill="#bed9fd"/></g><g><path d="m387.207 86.508h-30c18.772 0 33.991 15.218 33.991 33.991v342.511c0 18.772-15.218 33.991-33.991 33.991h30c18.772 0 33.991-15.218 33.991-33.991v-342.511c-.001-18.773-15.219-33.991-33.991-33.991z" fill="#9ec8fc"/></g><g><path d="m166.068 444.741v-305.974c0-5.573 4.518-10.091 10.091-10.091h192.779c5.573 0 10.091 4.518 10.091 10.091v305.974c0 5.573-4.518 10.091-10.091 10.091h-192.779c-5.573 0-10.091-4.518-10.091-10.091z" fill="#ddebfd"/></g><g><path d="m368.938 128.676h-30c5.573 0 10.091 4.518 10.091 10.091v305.974c0 5.573-4.518 10.091-10.091 10.091h30c5.573 0 10.091-4.518 10.091-10.091v-305.974c0-5.573-4.518-10.091-10.091-10.091z" fill="#bed9fd"/></g><g><path d="m11.471 100.354 11.773-7.595c4.619-2.98 10.811-.966 12.792 4.162l35.4 110.595c3.06 9.559 7.282 18.734 12.857 27.081 7.304 10.935 16.584 20.5 27.43 28.169l12.177 8.611v122.737l-56.351-52.774c-17.498-16.387-29.041-38.133-32.808-61.808l-27.133-170.528c-.54-3.394.975-6.787 3.863-8.65z" fill="#62a4fb"/></g><g><path d="m302.816 276.248c0 19.489-15.799 35.288-35.288 35.288s-35.288-15.799-35.288-35.288 35.288-72.941 35.288-72.941 35.288 53.452 35.288 72.941z" fill="#9ec8fc"/></g><g><path d="m225.575 121.176h-49.416c-9.699 0-17.591 7.892-17.591 17.591v305.974c0 9.7 7.892 17.591 17.591 17.591h192.779c9.699 0 17.591-7.892 17.591-17.591v-305.974c0-9.7-7.892-17.591-17.591-17.591h-113.363c-4.143 0-7.5 3.358-7.5 7.5s3.357 7.5 7.5 7.5h113.363c1.429 0 2.591 1.163 2.591 2.591v305.974c0 1.429-1.162 2.591-2.591 2.591h-192.779c-1.429 0-2.591-1.163-2.591-2.591v-305.974c0-1.429 1.162-2.591 2.591-2.591h49.416c4.143 0 7.5-3.358 7.5-7.5s-3.357-7.5-7.5-7.5z"/><path d="m273.787 199.175c-1.388-2.103-3.739-3.368-6.259-3.368s-4.871 1.265-6.259 3.368c-.367.555-9.077 13.778-17.934 29.638-12.513 22.41-18.596 37.926-18.596 47.436 0 23.593 19.194 42.788 42.788 42.788s42.788-19.195 42.788-42.788c.001-21.131-32.789-71.411-36.528-77.074zm-6.259 104.862c-15.322 0-27.788-12.466-27.788-27.788 0-10.689 15.16-38.636 27.789-59.009 12.628 20.369 27.787 48.311 27.787 59.009 0 15.322-12.466 27.788-27.788 27.788z"/><path d="m302.816 359.109h-70.576c-4.143 0-7.5 3.358-7.5 7.5s3.357 7.5 7.5 7.5h70.576c4.143 0 7.5-3.358 7.5-7.5s-3.357-7.5-7.5-7.5z"/><path d="m302.816 399.69h-70.576c-4.143 0-7.5 3.358-7.5 7.5s3.357 7.5 7.5 7.5h70.576c4.143 0 7.5-3.358 7.5-7.5s-3.357-7.5-7.5-7.5z"/><path d="m428.697 138.756v-18.258c0-22.878-18.612-41.49-41.49-41.49h-75.867v-24.368h4.717c6.046 0 10.965-4.919 10.965-10.966v-25.21c0-6.046-4.919-10.966-10.965-10.966h-87.016c-6.047 0-10.966 4.919-10.966 10.966v25.21c0 6.046 4.919 10.966 10.966 10.966h4.716v24.368h-75.867c-22.878 0-41.491 18.612-41.491 41.49v136.388l-.347-.245c-10.078-7.127-18.666-15.946-25.523-26.211-4.947-7.407-8.969-15.886-11.951-25.201l-35.4-110.595c-.044-.14-.093-.278-.146-.415-1.76-4.558-5.435-8.04-10.08-9.552-4.648-1.515-9.668-.861-13.774 1.789l-11.772 7.595c-5.384 3.473-8.211 9.805-7.205 16.132l27.133 170.528c4.009 25.192 16.47 48.668 35.069 66.085l53.996 50.924v65.29c0 22.878 18.613 41.491 41.491 41.491h68.11c4.143 0 7.5-3.358 7.5-7.5s-3.357-7.5-7.5-7.5h-68.11c-14.607 0-26.491-11.884-26.491-26.491v-342.512c0-14.607 11.884-26.49 26.491-26.49h229.316c14.607 0 26.49 11.883 26.49 26.49v342.512c0 14.607-11.884 26.491-26.49 26.491h-131.206c-4.143 0-7.5 3.358-7.5 7.5s3.357 7.5 7.5 7.5h131.207c22.878 0 41.49-18.613 41.49-41.491v-18.257c46.077-.859 83.303-38.583 83.303-84.862v-136.273c0-46.279-37.226-84.003-83.303-84.862zm-356.021 197.11c-16.199-15.169-27.041-35.594-30.527-57.512l-27.134-170.528c-.073-.458.132-.918.523-1.169l11.772-7.596c.313-.201.646-.244 1-.13.312.102.539.296.68.578l35.304 110.293c3.408 10.647 8.039 20.391 13.764 28.96 7.882 11.799 17.752 21.935 29.336 30.126l9.007 6.369v101.845zm160.399-313.367h78.946v17.141h-8.182-62.583-8.182v-17.141zm15.682 32.141h47.583v24.368h-47.583zm248.243 305.251c0 38.01-30.493 69.032-68.303 69.884v-276.041c37.81.852 68.303 31.874 68.303 69.884z"/></g></g></svg>